<?xml version="1.0" encoding="UTF-8" standalone="no"?>
<!-- Created with Inkscape (http://www.inkscape.org/) -->

<svg
   width="62.84198mm"
   height="70.710388mm"
   viewBox="0 0 62.84198 70.710388"
   version="1.1"
   id="svg5"
   xml:space="preserve"
   xmlns="http://www.w3.org/2000/svg"
   xmlns:svg="http://www.w3.org/2000/svg"><defs
     id="defs2" /><g
     id="layer1"
     transform="translate(-614.40144,628.98527)"><path
       d="m 624.27115,-616.78089 v -7.23608 h -2.18769 v -0.46741 h 1.25249 q 0.68469,0 1.1857,-0.55395 0.5177,-0.57127 0.7014,-1.10792 0.18369,-0.53665 0.18369,-0.81362 v -2.02541 h 0.167 v 3.73922 q 0,0.60589 -0.2171,0.72707 v 0.0346 q 1.1022,0 4.54239,-0.58857 3.44019,-0.60589 4.97658,-0.60589 3.1563,0 5.24379,2.38894 l -0.10019,0.10386 q -1.336,-1.52337 -4.42549,-1.52337 -1.6533,0 -5.14359,0.34621 -3.47359,0.34623 -4.87639,0.34623 v 7.68618 q 0,0.76168 0.4509,1.22909 0.4676,0.4674 1.2191,0.4674 0.9352,0 1.58649,-0.64051 0.668,-0.64052 0.668,-1.5407 0,-0.83094 -0.5845,-1.40221 -0.5845,-0.58858 -1.4195,-0.58858 -0.31729,0 -0.53439,-0.20773 -0.2171,-0.22505 -0.2171,-0.53665 h 0.334 q 1.11889,0 1.9205,0.81362 0.80159,0.79632 0.80159,1.92155 0,1.03867 -0.75149,1.76574 -0.7515,0.72707 -1.8036,0.72707 -1.336,0 -2.15429,-0.67514 -0.8183,-0.67514 -0.8183,-1.78305 z m 11.52296,2.45819 q -2.07079,0 -3.33999,-1.17716 -1.26919,-1.17716 -1.26919,-3.11602 0,-1.76574 1.3527,-3.01215 1.35269,-1.26372 3.25648,-1.26372 2.0541,0 3.3066,1.17717 1.2692,1.17716 1.2692,3.0987 0,1.78305 -1.3527,3.04677 -1.336,1.24641 -3.2231,1.24641 z m 0.0501,-0.3116 q 1.38609,0 2.22109,-1.00405 0.8517,-1.00405 0.8517,-2.64861 0,-1.78306 -0.9352,-3.02946 -0.9352,-1.26373 -2.25449,-1.26373 -1.3861,0 -2.2378,1.00406 -0.85169,1.00405 -0.85169,2.64861 0,1.78305 0.93519,3.04677 0.9519,1.24641 2.2712,1.24641 z"
       style="font-size:17.4109px;line-height:1;font-family:FoglihtenNo07calt;-inkscape-font-specification:FoglihtenNo07calt;text-align:center;text-anchor:middle;fill:#ffffff;stroke-width:0.396875"
       id="path1695-5" /><path
       d="m 642.6912,-615.53448 v -7.61693 q 0,-0.24236 -0.1503,-0.39815 -0.1503,-0.15581 -0.4008,-0.15581 -0.0334,0 -0.0668,0 l -0.9853,0.0865 -0.0167,-0.10386 1.28588,-0.27698 q 0.56781,-0.12118 0.95191,-0.43278 0.40079,-0.32891 0.40079,-0.83094 v -0.0692 h 0.13361 v 1.3849 q 0,1.15985 -0.13361,1.59263 v 0.0346 h 0.167 q 0.33401,-1.09061 1.1189,-1.78306 0.8016,-0.69245 1.7869,-0.69245 1.50299,0 2.40479,0.67514 0.9185,0.67514 0.9185,1.78305 0,1.17717 -1.13559,2.0081 -1.13561,0.83094 -2.7388,0.83094 h -0.1169 q 1.1523,0.2943 2.18769,1.47146 0.7014,0.81362 1.2859,1.38489 0.6012,0.55396 1.3026,1.05599 0.71809,0.50202 1.46959,0.76168 0.7682,0.24236 1.5698,0.24236 1.6366,0 2.80559,-0.98674 1.1857,-0.98673 1.53639,-2.56206 -0.31729,0.62321 -0.93518,1.00406 -0.61791,0.38084 -1.3527,0.38084 -1.36941,0 -2.2044,-0.69245 -0.835,-0.70975 -0.835,-1.8523 v -4.1893 q 0,-0.51934 -0.48429,-0.51934 h -0.80161 v -0.1558 h 0.96861 q 0.60119,0 1.03539,-0.20774 0.4509,-0.22504 0.4509,-0.70975 v -0.0692 h 0.1336 v 1.47146 4.82982 q 0,0.79632 0.4676,1.29834 0.48429,0.48471 1.2692,0.48471 0.93519,0 1.58649,-0.64052 0.668,-0.64051 0.668,-1.54069 0,-0.83094 -0.5845,-1.40221 -0.5845,-0.58858 -1.41949,-0.58858 -0.31731,0 -0.5344,-0.20773 -0.21711,-0.22505 -0.21711,-0.53665 h 0.33401 q 1.11889,0 1.92049,0.81363 0.8016,0.79632 0.8016,1.92154 0,2.23315 -1.4529,3.77384 -1.43619,1.5407 -3.62389,1.5407 -1.77019,0 -3.37339,-0.9348 -1.58649,-0.93482 -2.92249,-2.56206 l -0.3507,-0.43278 q -0.5511,-0.67514 -1.2024,-1.17717 -0.65129,-0.50202 -1.1523,-0.50202 h -0.4676 v 4.0162 q 0,0.91749 0.90181,0.91749 h 1.05209 v 0.13849 h -4.72609 v -0.1558 h 0.5845 q 0.8851,0 0.8851,-0.91749 z m 10.90507,-12.77567 q 0.334,0 0.5344,0.20773 0.2004,0.19043 0.2004,0.55396 0,0.34623 -0.2004,0.57127 -0.1837,0.20774 -0.5344,0.20774 -0.334,0 -0.5511,-0.20774 -0.2004,-0.20773 -0.2004,-0.57127 0,-0.34622 0.2004,-0.55396 0.2004,-0.20773 0.5511,-0.20773 z m -9.60248,8.51711 h 2.0374 q 1.1857,0 1.90379,-0.69244 0.7181,-0.70977 0.7181,-1.85231 0,-0.96943 -0.5177,-1.558 -0.51769,-0.60589 -1.35269,-0.60589 -1.1523,0 -1.9706,1.05598 -0.8183,1.05598 -0.8183,2.54475 z"
       style="font-size:17.4109px;line-height:1;font-family:FoglihtenNo07calt;-inkscape-font-specification:FoglihtenNo07calt;text-align:center;text-anchor:middle;fill:#ffffff;stroke-width:0.396875"
       id="path1697-6" /><path
       d="m 614.40147,-618.61589 0.3006,-0.0173 0.0334,0.70975 q 0.0668,1.50608 0.9352,2.44088 0.8684,0.93481 2.0708,0.93481 1.11889,0 1.8036,-0.69245 0.7014,-0.70975 0.7014,-1.83499 0,-0.53664 -0.20041,-1.00404 -0.20039,-0.46741 -0.6012,-0.86556 -0.4008,-0.39816 -0.78489,-0.67514 -0.3674,-0.29429 -0.9519,-0.65783 -0.5678,-0.34622 -0.88509,-0.55395 -0.3006,-0.20774 -0.7682,-0.6059 -0.4509,-0.39816 -0.7014,-0.74438 -0.2338,-0.36353 -0.4175,-0.86556 -0.1837,-0.51934 -0.1837,-1.10792 0,-1.26371 0.9018,-2.02541 0.90179,-0.779 2.38809,-0.779 1.23579,0 2.22109,0.76169 0.1837,0.13849 0.26721,0.39816 l 0.11689,-0.0346 q -0.0334,-0.13849 -0.0668,-0.55396 l -0.0501,-0.91749 h 0.16699 l 0.1837,4.08544 -0.3006,0.0173 -0.0334,-0.72707 q -0.0501,-1.12523 -0.7014,-1.92154 -0.6346,-0.79632 -1.80359,-0.79632 -1.0187,0 -1.56979,0.55396 -0.55111,0.53665 -0.55111,1.55801 0,0.41547 0.1503,0.79631 0.1503,0.36354 0.33401,0.64052 0.20039,0.25967 0.58449,0.58857 0.4008,0.3116 0.668,0.48473 0.2672,0.17311 0.7682,0.48471 0.55109,0.34623 0.90179,0.58859 0.3507,0.24235 0.80161,0.65783 0.4676,0.39814 0.71809,0.79631 0.2672,0.39815 0.4509,0.96943 0.2004,0.55395 0.2004,1.17715 0,1.40221 -1.0354,2.26776 -1.0187,0.84825 -2.68869,0.84825 -1.336,0 -2.63859,-0.9348 -0.3006,-0.22505 -0.4175,-0.57126 l -0.0668,0.0173 q 0.0501,0.22506 0.0668,0.7444 l 0.0501,1.09059 h -0.1503 z"
       style="font-size:17.4109px;line-height:1;font-family:FoglihtenNo07;-inkscape-font-specification:FoglihtenNo07;text-align:center;text-anchor:middle;fill:#ffffff;stroke-width:0.396875"
       id="path1674-2" /><path
       d="m 659.57485,-620.13925 q 0,-1.92155 1.48629,-3.28913 1.48629,-1.36759 3.59049,-1.36759 1.9873,0 3.20639,1.14254 1.2191,1.12524 1.2191,2.97753 v 0.0865 q 0,0.20775 -0.15029,0.36354 -0.13361,0.13849 -0.3507,0.13849 h -0.0167 l -4.49229,-0.0519 q -0.5177,0 -0.8851,0.34622 -0.36739,0.38085 -0.36739,0.86556 v 0.96943 q -0.3006,0 -0.5177,-0.22504 -0.2004,-0.22505 -0.2004,-0.53665 0,-0.74438 0.56779,-1.26372 0.5845,-0.53665 1.4028,-0.53665 h 3.49029 q 0.13361,0 0.13361,-0.1558 0,-1.71381 -0.8517,-2.75248 -0.8517,-1.05598 -2.2545,-1.05598 -1.60319,0 -2.58849,1.17716 -0.9853,1.17716 -0.9853,3.0987 0,1.92155 1.0855,3.41031 1.10219,1.47145 3.08949,2.28508 2.00399,0.79632 4.60919,0.79632 2.7889,0 4.49229,-0.90019 1.70339,-0.90018 1.70339,-2.37163 0,-0.43278 -0.2004,-0.77901 -0.18369,-0.34622 -0.5678,-0.60588 -0.38409,-0.25968 -0.7682,-0.43279 -0.36739,-0.17311 -0.93519,-0.36354 -0.5511,-0.20773 -0.8851,-0.34622 -0.334,-0.13848 -0.80159,-0.39816 -0.45091,-0.25966 -0.7014,-0.51933 -0.2505,-0.25967 -0.45091,-0.65783 -0.18369,-0.41547 -0.18369,-0.90018 0,-1.26371 0.9018,-2.02541 0.90179,-0.77901 2.38809,-0.77901 1.2358,0 2.2211,0.7617 0.18369,0.13849 0.26719,0.39815 l 0.1169,-0.0346 q -0.0334,-0.13849 -0.0668,-0.55396 l -0.0501,-0.9175 h 0.167 l 0.1837,4.08545 -0.3006,0.0173 -0.0334,-0.72707 q -0.0501,-1.12523 -0.7014,-1.92154 -0.6346,-0.79632 -1.8036,-0.79632 -1.0187,0 -1.5698,0.55396 -0.5511,0.53664 -0.5511,1.558 0,0.29429 0.1336,0.55396 0.13361,0.24236 0.31731,0.41547 0.20039,0.17312 0.55109,0.36354 0.3507,0.17311 0.6179,0.29429 0.2839,0.10386 0.7515,0.25966 0.5511,0.19043 0.93519,0.36354 0.38411,0.17311 0.835,0.45009 0.4676,0.27698 0.7515,0.60589 0.2839,0.3116 0.4843,0.77901 0.2004,0.4674 0.2004,1.02136 0,1.74843 -2.10419,2.82173 -2.1042,1.07328 -5.54439,1.07328 -4.50899,0 -7.26448,-1.85229 -2.75549,-1.86961 -2.75549,-4.91638 z"
       style="font-size:17.4109px;line-height:1;font-family:FoglihtenNo07;-inkscape-font-specification:FoglihtenNo07;text-align:center;text-anchor:middle;fill:#ffffff;stroke-width:0.396875"
       id="path1682-9" /><path
       d="m 631.19327,-587.49355 q -0.5177,0 -0.8851,0.36354 -0.3674,0.34621 -0.3674,0.84825 v 0.96942 q -0.30059,0 -0.5177,-0.22504 -0.2004,-0.22505 -0.2004,-0.53665 0,-0.74438 0.5678,-1.26373 0.5845,-0.53663 1.4028,-0.53663 h 3.57378 q 0.13361,0 0.13361,-0.15581 0,-1.71381 -0.8517,-2.75248 -0.8517,-1.05598 -2.25449,-1.05598 -1.6032,0 -2.6052,1.26371 -0.9853,1.26372 -0.9853,3.34107 0,2.16389 1.0521,3.7046 1.0688,1.54069 2.55509,1.54069 1.4696,0 2.5718,-0.67514 1.1189,-0.67513 1.66999,-1.86961 l 0.25051,0.17311 q -0.60121,1.26373 -1.7702,1.97348 -1.16899,0.70976 -2.7221,0.70976 -2.25449,0 -3.64058,-1.45414 -1.3861,-1.45414 -1.3861,-3.82577 0,-2.1466 1.48629,-3.66997 1.48631,-1.52339 3.59049,-1.52339 2.004,0 3.2064,1.14253 1.21909,1.12523 1.21909,2.97753 v 0.0865 q 0,0.20774 -0.15029,0.36354 -0.15031,0.13849 -0.36741,0.13849 z"
       style="font-size:17.4109px;line-height:1;font-family:FoglihtenNo07calt;-inkscape-font-specification:FoglihtenNo07calt;text-align:center;text-anchor:middle;fill:#ffffff;stroke-width:0.396875"
       id="path1764-2" /><path
       d="m 652.58592,-584.23905 q 1.26919,0 2.17099,-1.02136 0.9018,-1.02135 0.9018,-2.45819 0,-1.85229 -0.8851,-2.97753 -0.8684,-1.14253 -2.30459,-1.14253 -1.2859,0 -2.1877,1.02135 -0.9018,1.02137 -0.9018,2.4582 0,1.8523 0.8851,2.99484 0.88509,1.12522 2.3213,1.12522 z m -0.0501,0.3116 q -1.90379,0 -3.25648,-1.19446 -1.3527,-1.21179 -1.3527,-2.9256 0,-1.8523 1.26919,-2.97753 1.2692,-1.12522 3.33999,-1.12522 1.8871,0 3.2231,1.21177 1.35269,1.19448 1.35269,2.89098 0,1.8523 -1.26919,2.99484 -1.2525,1.12522 -3.3066,1.12522 z m -13.84426,1.03868 v -7.61693 q 0,-0.24235 -0.1503,-0.39816 -0.1503,-0.1558 -0.4008,-0.1558 -0.0334,0 -0.0668,0 l -0.9853,0.0865 -0.0167,-0.10387 1.28589,-0.27698 q 0.5678,-0.12118 0.9519,-0.43278 0.40079,-0.32892 0.40079,-0.83094 v -0.0692 h 0.13361 v 1.3849 q 0,1.15985 -0.13361,1.59263 v 0.0346 h 0.167 q 0.31731,-1.09061 1.08551,-1.78306 0.76819,-0.69244 1.73679,-0.69244 1.503,0 2.40479,0.67513 0.9185,0.67514 0.9185,1.78306 0,1.10791 -1.0187,1.92154 -1.01869,0.81363 -2.48829,0.91749 1.13559,0.27698 2.02069,1.31566 1.6199,1.83498 3.6239,2.9429 2.00399,1.09061 3.62388,1.09061 0.9519,0 1.8704,-0.22505 0.9352,-0.22505 1.61989,-0.57127 0.7014,-0.34623 1.13561,-0.6232 0.45089,-0.29429 0.73479,-0.53665 l 0.0835,0.12118 q -1.16899,1.05598 -2.82229,1.6965 -1.65329,0.64051 -3.4402,0.64051 -1.92048,0 -3.92448,-1.00405 -2.00399,-1.00405 -3.64059,-2.96022 -0.45091,-0.51933 -0.7849,-0.86556 -0.334,-0.36353 -0.835,-0.70976 -0.501,-0.34622 -0.9018,-0.34622 h -0.8851 v 4.01619 q 0,0.9175 0.9018,0.9175 h 1.0521 v 0.13849 h -4.72609 v -0.1558 h 0.5845 q 0.8851,0 0.8851,-0.91749 z m 1.30259,-4.25855 h 1.9539 q 1.18569,0 1.9038,-0.69246 0.7181,-0.70975 0.7181,-1.85229 0,-0.96943 -0.5177,-1.55802 -0.51771,-0.60589 -1.3527,-0.60589 -1.1189,0 -1.9205,1.05599 -0.7849,1.05598 -0.7849,2.54474 z"
       style="font-size:17.4109px;line-height:1;font-family:FoglihtenNo07calt;-inkscape-font-specification:FoglihtenNo07calt;text-align:center;text-anchor:middle;fill:#ffffff;stroke-width:0.396875"
       id="path1766-7" /><path
       d="m 615.67902,-581.81547 v -0.15579 h 0.5845 q 0.5845,0 0.73479,-0.20774 0.1503,-0.20773 0.1503,-0.86556 v -9.98856 q 0,-0.65783 -0.1503,-0.86556 -0.15029,-0.20774 -0.73479,-0.20774 h -0.5845 v -0.15579 h 4.10818 v 0.15579 h -0.43419 q -0.5845,0 -0.75151,0.20774 -0.15029,0.20773 -0.15029,0.86556 v 4.51822 h 4.57578 v -4.51822 q 0,-0.65783 -0.167,-0.86556 -0.15029,-0.20774 -0.73479,-0.20774 h -0.4342 v -0.15579 h 4.12489 v 0.15579 h -0.6012 q -0.58449,0 -0.7348,0.20774 -0.1503,0.20773 -0.1503,0.86556 v 9.98856 q 0,0.65783 0.1503,0.86556 0.15031,0.20774 0.7348,0.20774 h 0.6012 v 0.15579 H 621.691 v -0.15579 h 0.45089 q 0.5845,0 0.73481,-0.20774 0.15029,-0.20773 0.15029,-0.86556 v -5.15874 h -4.57578 v 5.15874 q 0,0.65783 0.15029,0.86556 0.16701,0.20774 0.75151,0.20774 h 0.43419 v 0.15579 z"
       style="font-size:17.4109px;line-height:1;font-family:FoglihtenNo07;-inkscape-font-specification:FoglihtenNo07;text-align:center;text-anchor:middle;fill:#ffffff;stroke-width:0.396875"
       id="path1771-0" /><path
       d="m 658.2973,-587.49355 q 0,-1.92154 1.4863,-3.28912 1.48629,-1.36759 3.59049,-1.36759 1.98729,0 3.20639,1.14254 1.2191,1.12522 1.2191,2.97753 v 0.0865 q 0,0.20773 -0.15031,0.36354 -0.13359,0.13848 -0.3507,0.13848 h -0.0167 l -4.49229,-0.0519 q -0.5177,0 -0.8851,0.34623 -0.36741,0.38084 -0.36741,0.86555 v 0.96943 q -0.30059,0 -0.51769,-0.22505 -0.2004,-0.22504 -0.2004,-0.53664 0,-0.74439 0.5678,-1.26372 0.5845,-0.53665 1.4028,-0.53665 h 3.49029 q 0.1336,0 0.1336,-0.15579 0,-1.71381 -0.8517,-2.75248 -0.8517,-1.05599 -2.25449,-1.05599 -1.6032,0 -2.58849,1.17717 -0.9853,1.17716 -0.9853,3.09869 0,1.92155 1.08549,3.41031 1.1022,1.47145 3.0895,2.28508 2.00399,0.79631 4.60918,0.79631 2.78889,0 4.49229,-0.90017 1.7034,-0.90019 1.7034,-2.37164 0,-0.43278 -0.2004,-0.77901 -0.18371,-0.34621 -0.5678,-0.60589 -0.38411,-0.25966 -0.7682,-0.43278 -0.3674,-0.17311 -0.9352,-0.36353 -0.55109,-0.20773 -0.8851,-0.34622 -0.334,-0.1385 -0.8016,-0.39816 -0.45089,-0.25967 -0.70139,-0.51933 -0.2505,-0.25968 -0.4509,-0.65783 -0.1837,-0.41547 -0.1837,-0.90019 0,-1.26372 0.9018,-2.02541 0.90179,-0.779 2.3881,-0.779 1.23579,0 2.22108,0.76169 0.1837,0.13849 0.26721,0.39816 l 0.1169,-0.0346 q -0.0334,-0.1385 -0.0668,-0.55396 l -0.0501,-0.91749 h 0.167 l 0.1837,4.08543 -0.3006,0.0173 -0.0334,-0.72707 q -0.0501,-1.12523 -0.7014,-1.92155 -0.6346,-0.79631 -1.80358,-0.79631 -1.01871,0 -1.5698,0.55395 -0.5511,0.53665 -0.5511,1.55802 0,0.29429 0.1336,0.55396 0.13359,0.24235 0.31729,0.41547 0.20041,0.17311 0.55111,0.36353 0.3507,0.17311 0.61789,0.29428 0.2839,0.10387 0.7515,0.25968 0.5511,0.19042 0.9352,0.36354 0.38409,0.17311 0.835,0.45008 0.4676,0.27699 0.7515,0.6059 0.28389,0.3116 0.48429,0.779 0.2004,0.4674 0.2004,1.02136 0,1.74843 -2.10419,2.82173 -2.1042,1.07329 -5.54439,1.07329 -4.50899,0 -7.26448,-1.8523 -2.75549,-1.86961 -2.75549,-4.91638 z"
       style="font-size:17.4109px;line-height:1;font-family:FoglihtenNo07;-inkscape-font-specification:FoglihtenNo07;text-align:center;text-anchor:middle;fill:#ffffff;stroke-width:0.396875"
       id="path1779-9" /><path
       id="path2011-6"
       style="fill:#aa0000;fill-opacity:1;stroke:#aa0000;stroke-width:0.125919;stroke-linejoin:miter;stroke-miterlimit:4;stroke-dasharray:none;stroke-opacity:1;paint-order:stroke fill markers"
       d="m 645.46881,-572.8015 a 2.1432323,2.1432323 0 0 0 -1.7895,2.11409 2.1432323,2.1432323 0 0 0 0.1886,0.87901 8.4828157,8.4828157 0 0 0 1.6009,-2.9931 z m 0.7069,0 a 8.4828157,8.4828157 0 0 0 1.601,2.99362 2.1432323,2.1432323 0 0 0 0.1891,-0.87953 2.1432323,2.1432323 0 0 0 -1.7901,-2.11409 z" /><path
       id="path2013-2"
       style="fill:#aa0000;fill-opacity:1;stroke:none;stroke-width:0.264583;stroke-linecap:square;stroke-linejoin:round;stroke-miterlimit:4;stroke-dasharray:none;stroke-opacity:1;paint-order:stroke fill markers"
       d="m 645.82241,-575.20814 a 8.4828158,8.4828158 0 0 1 -8.4666,8.46665 8.4828158,8.4828158 0 0 1 8.4666,8.46668 8.4828158,8.4828158 0 0 1 8.4667,-8.46668 8.4828158,8.4828158 0 0 1 -8.4667,-8.46665 z" /><circle
       style="fill:#ffffff;fill-opacity:1;stroke:none;stroke-width:0.125919;stroke-linejoin:miter;stroke-miterlimit:4;stroke-dasharray:none;paint-order:stroke fill markers"
       id="circle2015-6"
       cx="645.82251"
       cy="-570.68762"
       r="2.1432323" /><path
       id="path2017-1"
       style="fill:#ffffff;fill-opacity:1;stroke:none;stroke-width:0.185208;stroke-linejoin:miter;stroke-miterlimit:4;stroke-dasharray:none;paint-order:stroke fill markers"
       d="m 645.78351,-567.53483 c -0.5401,0.007 -1.0695,0.15173 -1.5374,0.42168 -0.8445,0.48758 -1.407,1.33343 -1.5431,2.28255 a 8.4828157,8.4828157 0 0 1 3.1192,6.55567 8.4828157,8.4828157 0 0 1 3.1197,-6.55567 c -0.1361,-0.94923 -0.6989,-1.79508 -1.5435,-2.28255 -0.4907,-0.2831 -1.0485,-0.42876 -1.6149,-0.42168 z" /><path
       d="m 645.23792,-599.90408 q 1.2692,0 2.171,-1.02136 0.90179,-1.02137 0.90179,-2.45819 0,-1.85231 -0.8851,-2.97753 -0.86839,-1.14254 -2.30459,-1.14254 -1.28589,0 -2.18769,1.02136 -0.9018,1.02137 -0.9018,2.45819 0,1.85231 0.8851,2.99484 0.8851,1.12523 2.32129,1.12523 z m -0.0501,0.3116 q -1.9038,0 -3.2565,-1.19448 -1.3527,-1.21178 -1.3527,-2.92559 0,-1.8523 1.2692,-2.97752 1.2692,-1.12523 3.34,-1.12523 1.88709,0 3.22308,1.21178 1.3527,1.19448 1.3527,2.89097 0,1.85231 -1.26919,2.99484 -1.25251,1.12523 -3.30659,1.12523 z m -13.84427,1.03867 v -7.61693 q 0,-0.24236 -0.1503,-0.39815 -0.1503,-0.15581 -0.4008,-0.15581 -0.0334,0 -0.0668,0 l -0.98529,0.0865 -0.0167,-0.10386 1.2859,-0.27699 q 0.5678,-0.12118 0.9519,-0.43278 0.4008,-0.32891 0.4008,-0.83093 v -0.0692 h 0.13359 v 1.3849 q 0,1.15985 -0.13359,1.59263 v 0.0346 h 0.167 q 0.31729,-1.0906 1.08549,-1.78305 0.7682,-0.69245 1.7368,-0.69245 1.50299,0 2.40479,0.67513 0.9185,0.67514 0.9185,1.78306 0,1.10792 -1.0187,1.92154 -1.01869,0.81363 -2.48829,0.9175 1.1356,0.27697 2.0207,1.31564 1.61989,1.83499 3.62388,2.94292 2.004,1.09059 3.6239,1.09059 0.95189,0 1.87039,-0.22504 0.93519,-0.22504 1.6199,-0.57127 0.7014,-0.34622 1.13559,-0.6232 0.4509,-0.2943 0.7348,-0.53665 l 0.0835,0.12118 q -1.169,1.05599 -2.82229,1.6965 -1.6533,0.64052 -3.44019,0.64052 -1.9205,0 -3.9245,-1.00406 -2.00399,-1.00404 -3.64058,-2.96021 -0.4509,-0.51934 -0.7849,-0.86556 -0.334,-0.36353 -0.835,-0.70976 -0.50099,-0.34623 -0.90179,-0.34623 h -0.8851 v 4.0162 q 0,0.9175 0.90179,0.9175 h 1.0521 v 0.13848 h -4.72609 v -0.15579 h 0.5845 q 0.8851,0 0.8851,-0.9175 z m 1.3026,-4.25855 h 1.95389 q 1.1857,0 1.90379,-0.69245 0.7181,-0.70976 0.7181,-1.8523 0,-0.96942 -0.51769,-1.55801 -0.5177,-0.60589 -1.3527,-0.60589 -1.1189,0 -1.9205,1.05598 -0.78489,1.05599 -0.78489,2.54475 z"
       style="font-size:17.4109px;line-height:1;font-family:FoglihtenNo07calt;-inkscape-font-specification:FoglihtenNo07calt;text-align:center;text-anchor:middle;fill:#ffffff;fill-opacity:1;stroke-width:0.396875"
       id="path8198-3" /><path
       d="m 650.76561,-597.48052 v -0.15579 h 0.5845 c 0.40079,0 0.64572,-0.0462 0.73479,-0.1385 0.10021,-0.10386 0.15031,-0.36353 0.15031,-0.779 v -7.61693 c 0,-0.16157 -0.0501,-0.29429 -0.15031,-0.39815 -0.10019,-0.10387 -0.23379,-0.15581 -0.40079,-0.15581 h -0.0668 l -0.98529,0.0865 -0.0167,-0.10386 1.2859,-0.27699 c 0.77933,-0.16157 1.169,-0.58281 1.169,-1.26371 v -0.0692 h 0.1336 v 2.26777 c 0,0.83094 -0.0111,1.36182 -0.0334,1.59263 h 0.1503 c 0.0668,-0.48471 0.15587,-0.88287 0.2672,-1.19447 0.52327,-1.41952 1.4028,-2.12928 2.6386,-2.12928 0.81273,0 1.38609,0.20196 1.72009,0.60589 0.33399,0.40393 0.50099,0.96366 0.50099,1.67919 v 1.03867 h 0.0668 c 0.0111,-0.2539 0.0668,-0.55396 0.167,-0.90018 0.11134,-0.35777 0.19484,-0.59435 0.25051,-0.70976 0.57893,-1.14254 1.40279,-1.71381 2.47159,-1.71381 0.74593,0 1.34713,0.20196 1.8036,0.60589 0.45647,0.40393 0.6847,0.96943 0.6847,1.6965 v 5.03756 c 0,0.38084 0.10019,1.69073 0.60119,2.1639 0.501,0.46163 1.16343,0.69245 1.9873,0.69245 0.94633,0 1.7535,-0.33468 2.4215,-1.00405 0.67913,-0.66937 1.01869,-1.47722 1.01869,-2.42357 0,-0.66937 -0.23937,-1.24064 -0.7181,-1.71381 -0.4676,-0.47317 -1.0354,-0.70976 -1.70339,-0.70976 -0.21154,0 -0.38967,-0.0692 -0.5344,-0.20773 -0.14473,-0.15003 -0.2171,-0.32892 -0.2171,-0.53665 h 0.334 c 0.86839,0 1.60876,0.3116 2.22109,0.9348 0.61233,0.61166 0.9185,1.35604 0.9185,2.23315 0,1.08484 -0.37297,2.01388 -1.1189,2.78711 -0.74593,0.76169 -1.64217,1.14253 -2.6887,1.14253 -1.14673,0 -2.07079,-0.34045 -2.77219,-1.02135 -0.70139,-0.68091 -1.05209,-1.5811 -1.05209,-2.70056 v -4.51822 c 0,-0.68091 -0.12247,-1.21178 -0.3674,-1.59263 -0.24493,-0.38085 -0.5678,-0.57127 -0.9686,-0.57127 -0.75706,0 -1.36939,0.3693 -1.83699,1.10791 -0.4676,0.72707 -0.7014,1.69073 -0.7014,2.89097 v 4.96832 c 0,0.41547 0.0501,0.67514 0.15029,0.779 0.10021,0.0923 0.35071,0.1385 0.7515,0.1385 h 0.4342 v 0.15579 h -3.60719 v -0.15579 h 1.1189 v -0.0346 c -0.1002,-0.10386 -0.1503,-0.25389 -0.1503,-0.45009 v -7.23608 c 0,-0.68091 -0.12246,-1.21178 -0.36739,-1.59263 -0.24494,-0.38085 -0.56781,-0.57127 -0.96861,-0.57127 -0.75706,0 -1.36939,0.36931 -1.83699,1.10792 -0.4676,0.72707 -0.7014,1.69072 -0.7014,2.89096 v 4.96832 c 0,0.41547 0.0501,0.67514 0.1503,0.779 0.1002,0.0923 0.3507,0.1385 0.7515,0.1385 h 0.58449 v 0.15579 z"
       style="font-size:17.4109px;line-height:1;font-family:FoglihtenNo07calt;-inkscape-font-specification:FoglihtenNo07calt;text-align:center;text-anchor:middle;fill:#ffffff;fill-opacity:1;stroke-width:0.396875"
       id="path8200-6" /><path
       d="m 621.42379,-597.48047 v -0.1558 h 0.5845 q 0.60119,0 0.7348,-0.13849 0.15029,-0.15581 0.15029,-0.77901 v -10.30016 q 0,-0.62321 -0.15029,-0.7617 -0.13361,-0.15579 -0.7348,-0.15579 h -0.5845 v -0.15581 h 6.94718 q 0.3006,0 0.4509,0.15581 h 0.0167 l -0.0668,-1.17717 0.15029,-0.0173 0.31731,5.07218 h -0.3006 l -0.0668,-1.21178 q -0.0668,-1.31565 -0.88509,-1.90423 -0.8183,-0.6059 -2.13761,-0.6059 h -2.02069 v 0.0173 q 0.3674,0.38086 0.3674,0.90019 v 5.15873 h 0.668 q 0.4175,0 0.7181,-0.0519 0.31729,-0.0692 0.6513,-0.24236 0.334,-0.17311 0.5177,-0.55396 0.1837,-0.39816 0.1837,-0.98675 v -1.03867 h 0.15029 v 5.73001 h -0.15029 v -0.70975 q 0,-0.90019 -0.5344,-1.36759 -0.5344,-0.4674 -1.5364,-0.4674 h -0.668 v 4.67402 q 0,0.6232 0.1503,0.77901 0.1503,0.13849 0.7515,0.13849 h 1.0855 v 0.1558 z"
       style="font-size:17.4109px;line-height:1;font-family:FoglihtenNo07;-inkscape-font-specification:FoglihtenNo07;text-align:center;text-anchor:middle;fill:#ffffff;fill-opacity:1;stroke-width:0.396875"
       id="path8202-1" /></g></svg>
